<svg xmlns="http://www.w3.org/2000/svg" viewBox="0 0 16 16"><path d="M7.9,0H0V13.3H2.7V2.4H7.9a4.246,4.246,0,0,1,4.3,4.2,1.268,1.268,0,0,1-.1.6l1.7,3.2A6.154,6.154,0,0,0,15,6.6C15,2.7,11.9,0,7.9,0Z" fill="#858585"/><polygon points="5 11.6 2.7 13.3 4.1 13.3 5 11.6" fill="#858585"/><path d="M14.906,14.529l-4.252-8a1,1,0,0,0-1.766,0l-4.252,8A1,1,0,0,0,5.519,16h8.5A1,1,0,0,0,14.906,14.529ZM9.77,14.5a.5.5,0,1,1,.5-.5A.5.5,0,0,1,9.77,14.5Zm.5-3a.5.5,0,0,1-1,0v-3a.5.5,0,0,1,1,0Z" fill="#f5a623"/></svg>
