<?xml version="1.0" encoding="utf-8"?><svg id="Layer_1" xmlns="http://www.w3.org/2000/svg" viewBox="0 0 16 16"><path d="M3.4 14h.1zM3.4 4.1h5.1c1.7 0 3.1 1.1 3.6 2.6l2.1 4c.6-.8.8-1.7.8-2.7 0-3.5-2.8-6-6.4-6H1v12h2.4V4.1z" fill="#858585"/><path d="M14.9 14.5l-4.3-8c-.2-.5-.8-.6-1.3-.4-.2.1-.3.3-.4.4l-4.3 8c-.2.5 0 1.1.4 1.4.2.1.4.1.5.1H14c.6 0 1-.4 1-1 0-.2 0-.3-.1-.5zm-5.1 0c-.3 0-.5-.2-.5-.5s.2-.5.5-.5.5.2.5.5-.3.5-.5.5zm.5-3c0 .3-.2.5-.5.5s-.5-.2-.5-.5v-3c0-.3.2-.5.5-.5s.5.2.5.5v3z" fill="#f5a623"/></svg>
